<svg width="154" height="44" viewBox="0 0 154 44" fill="none" xmlns="http://www.w3.org/2000/svg">
<rect width="146" height="40" transform="matrix(1 0 0 -1 4 42)" fill="#F93770"/>
<rect width="150" height="32" transform="matrix(1 0 0 -1 2 38)" fill="#F93770"/>
<rect x="152" y="6" width="2" height="32" fill="black"/>
<rect width="2" height="2" transform="matrix(-1 0 0 1 6 2)" fill="black"/>
<rect width="2" height="2" transform="matrix(-1 0 0 1 4 4)" fill="black"/>
<rect width="2" height="32" transform="matrix(-1 0 0 1 2 6)" fill="black"/>
<rect x="6" y="42" width="2" height="2" transform="rotate(180 6 42)" fill="black"/>
<rect x="4" y="40" width="2" height="2" transform="rotate(180 4 40)" fill="black"/>
<rect x="148" y="2" width="2" height="2" fill="black"/>
<rect x="150" y="4" width="2" height="2" fill="black"/>
<rect width="2" height="2" transform="matrix(1 0 0 -1 148 42)" fill="black"/>
<rect width="2" height="2" transform="matrix(1 0 0 -1 150 40)" fill="black"/>
<rect x="6" y="42" width="142" height="2" fill="black"/>
<rect x="6" width="142" height="2" fill="black"/>
<rect x="6" y="2" width="142" height="2" fill="#FE7FB1"/>
<rect width="2" height="30" transform="matrix(-1 0 0 1 4 6)" fill="#FE7FB1"/>
<rect width="2" height="2" transform="matrix(-1 0 0 1 6 4)" fill="#FE7FB1"/>
<rect x="148" y="42" width="142" height="2" transform="rotate(180 148 42)" fill="#D51F58"/>
<rect width="2" height="32" transform="matrix(1 0 0 -1 150 38)" fill="#D51F58"/>
<rect width="2" height="2" transform="matrix(1 0 0 -1 148 40)" fill="#D51F58"/>
<path d="M44.832 19.784H46.848V22.04H44.832V29.592H42.336V14.568H44.832V19.784ZM36.192 24.984C37.6853 24.984 39.3333 24.8507 41.136 24.584L41.408 26.792C39.584 27.1013 37.7013 27.256 35.76 27.256H32.672V15.512H40.4V17.784H35.2V24.984H36.192ZM52.6999 20.232C51.4519 20.232 50.4439 19.992 49.6759 19.512C48.9185 19.032 48.5399 18.3333 48.5399 17.416C48.5399 16.5093 48.9185 15.8213 49.6759 15.352C50.4439 14.8827 51.4519 14.648 52.6999 14.648H55.6119C56.8599 14.648 57.8625 14.8827 58.6199 15.352C59.3879 15.8213 59.7719 16.5093 59.7719 17.416C59.7719 18.3333 59.3879 19.032 58.6199 19.512C57.8625 19.992 56.8599 20.232 55.6119 20.232H52.6999ZM55.1159 18.312C55.8092 18.312 56.3425 18.2427 56.7159 18.104C57.0892 17.9547 57.2759 17.736 57.2759 17.448C57.2759 16.8827 56.5559 16.6 55.1159 16.6H53.1959C51.7559 16.6 51.0359 16.8827 51.0359 17.448C51.0359 17.736 51.2225 17.9547 51.5959 18.104C51.9692 18.2427 52.5025 18.312 53.1959 18.312H55.1159ZM61.2599 23.16H47.0519V21.064H61.2599V23.16ZM59.7079 29.592H48.6359V24.168H59.7079V29.592ZM51.1319 26.12V27.592H57.2119V26.12H51.1319ZM65.9358 19.4C68.8158 18.9627 70.4691 18.312 70.8958 17.448H66.7358V15.368H70.9598V14.328H73.3918V15.368H77.5198V17.448H73.3118C73.3011 17.704 73.2531 17.944 73.1678 18.168L78.3198 19.432L77.5518 21.48L71.6798 19.96C70.6451 20.6107 68.9544 21.1173 66.6078 21.48L65.9358 19.4ZM79.2318 23.784H73.3758V24.712H74.0158C75.1891 24.712 76.1171 24.9413 76.7998 25.4C77.4824 25.8587 77.8238 26.4667 77.8238 27.224C77.8238 27.9813 77.4824 28.5893 76.7998 29.048C76.1171 29.5173 75.1891 29.752 74.0158 29.752H70.2398C69.0664 29.752 68.1384 29.5173 67.4558 29.048C66.7731 28.5893 66.4318 27.9813 66.4318 27.224C66.4318 26.4667 66.7731 25.8587 67.4558 25.4C68.1384 24.9413 69.0664 24.712 70.2398 24.712H70.8798V23.784H65.0238V21.832H79.2318V23.784ZM75.3278 27.208C75.3278 26.7813 74.6931 26.568 73.4238 26.568H70.8318C69.5624 26.568 68.9278 26.7813 68.9278 27.208C68.9278 27.6347 69.5624 27.848 70.8318 27.848H73.4238C74.6931 27.848 75.3278 27.6347 75.3278 27.208ZM87.9636 20.248V18.136H90.2996V14.568H92.7956V25.544H90.2996V20.248H87.9636ZM84.2516 21.352C83.4836 22.376 82.401 23.2987 81.0036 24.12L79.6276 22.152C80.8116 21.4053 81.6703 20.6533 82.2036 19.896C82.737 19.1387 83.0303 18.3067 83.0836 17.4H80.2516V15.208H88.5236V17.4H85.5796C85.5476 18.072 85.457 18.664 85.3076 19.176L89.0996 21.88L87.6596 23.88L84.2516 21.352ZM84.8276 24.6V27.336H93.2596V29.592H82.3156V24.6H84.8276ZM100.968 20.472C99.8368 21.7733 98.1088 22.9147 95.7835 23.896L94.6475 21.736C96.6208 20.8613 98.0235 19.9707 98.8555 19.064C99.6875 18.1573 100.104 17.2133 100.104 16.232V15.176H102.6V16.232C102.6 17.0107 102.472 17.7307 102.216 18.392L107.896 21.8L106.568 23.896L100.968 20.472ZM102.52 23.352V26.36H108.376V28.632H94.1675V26.36H100.024V23.352H102.52Z" fill="white"/>
<path d="M125.995 22.7871C126.506 22.3868 126.506 21.6132 125.995 21.2129L118.117 15.0396C117.46 14.5253 116.5 14.9929 116.5 15.8267L116.5 28.1733C116.5 29.0071 117.46 29.4747 118.117 28.9604L125.995 22.7871Z" fill="white"/>
</svg>
